<svg xmlns="http://www.w3.org/2000/svg" width="215.5" height="54.862" viewBox="0 0 215.5 54.862">
  <g id="Grupo_62" data-name="Grupo 62" transform="translate(-273 -40.042)">
    <g id="Grupo_61" data-name="Grupo 61" transform="translate(-201.975 -69.72)">
      <path id="Trazado_108" data-name="Trazado 108" d="M589.522,135.178h7.727V132.33h-7.727v-3.757H598.2v-2.891H586.345v16.384H598.5v-2.891h-8.982Z" transform="translate(-34.811 -4.976)" fill="#fff"/>
      <path id="Trazado_109" data-name="Trazado 109" d="M612.268,125.683h-3.177v16.384H620.61v-2.891h-8.343Z" transform="translate(-41.92 -4.976)" fill="#fff"/>
      <path id="Trazado_110" data-name="Trazado 110" d="M650.037,139.578l.311-.35-2.12-2.054-.34.356a5.24,5.24,0,0,1-3.984,1.7,5.831,5.831,0,0,1-2.866-.707,5.146,5.146,0,0,1-1.982-1.943,5.76,5.76,0,0,1,0-5.566,5.13,5.13,0,0,1,1.98-1.941,5.844,5.844,0,0,1,2.867-.709,5.227,5.227,0,0,1,3.984,1.677l.34.356,2.12-2.055-.311-.35a7.3,7.3,0,0,0-2.735-1.923,9.3,9.3,0,0,0-3.485-.639,9.084,9.084,0,0,0-4.417,1.083,8.027,8.027,0,0,0-3.114,3,8.732,8.732,0,0,0,0,8.574,8.035,8.035,0,0,0,3.1,3,9.04,9.04,0,0,0,4.406,1.085,9.181,9.181,0,0,0,3.5-.654A7.329,7.329,0,0,0,650.037,139.578Z" transform="translate(-50.069 -4.896)" fill="#fff"/>
      <path id="Trazado_111" data-name="Trazado 111" d="M672.107,139.176h-8.342V125.683h-3.177v16.384h11.52Z" transform="translate(-58.017 -4.976)" fill="#fff"/>
      <path id="Trazado_112" data-name="Trazado 112" d="M690.135,125.683h-2.809L679.97,141.93l-.063.137h3.343l1.7-3.852H692.5l1.668,3.795.025.058h3.389l-7.419-16.326Zm-3.99,9.794,2.576-5.849,2.576,5.849Z" transform="translate(-64.055 -4.976)" fill="#fff"/>
      <path id="Trazado_113" data-name="Trazado 113" d="M719.326,134.661a5.224,5.224,0,0,0-2-1.409,22.447,22.447,0,0,0-2.865-.858,20.305,20.305,0,0,1-2.071-.566,3.231,3.231,0,0,1-1.138-.667,1.207,1.207,0,0,1-.375-.931,1.619,1.619,0,0,1,.735-1.367,4.331,4.331,0,0,1,2.52-.588,7.238,7.238,0,0,1,2.02.3,7.448,7.448,0,0,1,1.943.879l.492.313,1.1-2.661-.321-.226a7.7,7.7,0,0,0-2.422-1.083,10.893,10.893,0,0,0-2.811-.368,8.546,8.546,0,0,0-3.48.635,4.938,4.938,0,0,0-2.178,1.763,4.466,4.466,0,0,0-.73,2.493,3.918,3.918,0,0,0,.879,2.664,5.127,5.127,0,0,0,2.017,1.421,22.451,22.451,0,0,0,2.873.858c.9.213,1.607.408,2.1.579a2.956,2.956,0,0,1,1.1.652,1.225,1.225,0,0,1,.366.936,1.53,1.53,0,0,1-.734,1.325,4.667,4.667,0,0,1-2.584.564,7.827,7.827,0,0,1-2.664-.467,6.274,6.274,0,0,1-2.1-1.191l-.486-.439-1.249,2.633.263.245a7.416,7.416,0,0,0,2.721,1.5,11.081,11.081,0,0,0,3.511.566,8.8,8.8,0,0,0,3.5-.625,4.915,4.915,0,0,0,2.216-1.765,4.422,4.422,0,0,0,.741-2.48A3.85,3.85,0,0,0,719.326,134.661Z" transform="translate(-72.605 -4.896)" fill="#fff"/>
      <rect id="Rectángulo_37" data-name="Rectángulo 37" width="3.178" height="16.384" transform="translate(650.607 120.706)" fill="#fff"/>
      <path id="Trazado_114" data-name="Trazado 114" d="M745.035,129.07a5.834,5.834,0,0,1,2.867-.709,5.227,5.227,0,0,1,3.982,1.677l.34.356,2.122-2.055-.312-.35a7.288,7.288,0,0,0-2.735-1.923,9.3,9.3,0,0,0-3.484-.639,9.078,9.078,0,0,0-4.417,1.083,8.017,8.017,0,0,0-3.114,3,8.732,8.732,0,0,0,0,8.574,8.04,8.04,0,0,0,3.1,3,9.038,9.038,0,0,0,4.406,1.085,9.193,9.193,0,0,0,3.5-.654,7.349,7.349,0,0,0,2.744-1.932l.311-.35-2.121-2.054-.34.356a5.237,5.237,0,0,1-3.982,1.7,5.828,5.828,0,0,1-2.867-.707,5.148,5.148,0,0,1-1.982-1.943,5.769,5.769,0,0,1,0-5.566A5.125,5.125,0,0,1,745.035,129.07Z" transform="translate(-82.576 -4.896)" fill="#fff"/>
      <path id="Trazado_115" data-name="Trazado 115" d="M779.447,129.508a8.026,8.026,0,0,0-3.114-3,9.588,9.588,0,0,0-8.855,0,8.069,8.069,0,0,0-3.125,3.008,8.623,8.623,0,0,0,0,8.554,8.106,8.106,0,0,0,3.123,3.008,9.588,9.588,0,0,0,8.858,0,8.034,8.034,0,0,0,3.113-3,8.738,8.738,0,0,0,0-8.574Zm-2.77,7.07a5.2,5.2,0,0,1-1.954,1.945,5.6,5.6,0,0,1-2.807.705,5.724,5.724,0,0,1-2.834-.707,5.161,5.161,0,0,1-1.972-1.943,5.762,5.762,0,0,1,0-5.566,5.148,5.148,0,0,1,1.971-1.942,5.736,5.736,0,0,1,2.834-.709,5.6,5.6,0,0,1,2.807.708,5.2,5.2,0,0,1,1.954,1.943,5.771,5.771,0,0,1,0,5.565Z" transform="translate(-90.095 -4.896)" fill="#fff"/>
      <rect id="Rectángulo_38" data-name="Rectángulo 38" width="5.177" height="0.797" transform="translate(580.562 149.932)" fill="#fff"/>
      <rect id="Rectángulo_39" data-name="Rectángulo 39" width="5.178" height="0.797" transform="translate(656.27 149.932)" fill="#fff"/>
      <path id="Trazado_116" data-name="Trazado 116" d="M647.578,164.373a4.109,4.109,0,0,0-1.9-.424h-2.84v6.738h2.84a4.091,4.091,0,0,0,1.895-.423,3.1,3.1,0,0,0,1.285-1.189,3.592,3.592,0,0,0,0-3.513A3.126,3.126,0,0,0,647.578,164.373Zm.443,4.268a2.332,2.332,0,0,1-.959.89,3.141,3.141,0,0,1-1.439.318H643.8v-5.064h1.82a3.129,3.129,0,0,1,1.439.317,2.3,2.3,0,0,1,.958.89,2.768,2.768,0,0,1,0,2.648Z" transform="translate(-52.47 -16.937)" fill="#fff"/>
      <path id="Trazado_117" data-name="Trazado 117" d="M656.211,167.674h3.38v-.82h-3.38v-2.068H660v-.838h-4.755v6.738h4.89v-.837h-3.927Z" transform="translate(-56.348 -16.937)" fill="#fff"/>
      <path id="Trazado_118" data-name="Trazado 118" d="M668.637,167.245a9.141,9.141,0,0,0-1.224-.368,8.451,8.451,0,0,1-.926-.254,1.607,1.607,0,0,1-.574-.335.749.749,0,0,1-.232-.566.92.92,0,0,1,.41-.769,2.094,2.094,0,0,1,1.228-.3,3.357,3.357,0,0,1,.943.14,3.526,3.526,0,0,1,.9.409l.319-.771a3.154,3.154,0,0,0-.993-.441,4.555,4.555,0,0,0-1.174-.155,3.526,3.526,0,0,0-1.436.261,1.95,1.95,0,0,0-.86.692,1.737,1.737,0,0,0-.284.972,1.5,1.5,0,0,0,.333,1.026,2.028,2.028,0,0,0,.8.563,9.975,9.975,0,0,0,1.229.368,9.443,9.443,0,0,1,.938.258,1.518,1.518,0,0,1,.558.331.754.754,0,0,1,.226.564.878.878,0,0,1-.413.756,2.241,2.241,0,0,1-1.252.283,3.634,3.634,0,0,1-1.237-.216,2.954,2.954,0,0,1-.986-.563l-.355.751a3,3,0,0,0,1.111.61,4.629,4.629,0,0,0,1.468.236,3.63,3.63,0,0,0,1.444-.255,1.935,1.935,0,0,0,.876-.694,1.722,1.722,0,0,0,.288-.967,1.488,1.488,0,0,0-.33-1.011A2.065,2.065,0,0,0,668.637,167.245Z" transform="translate(-59.263 -16.902)" fill="#fff"/>
      <path id="Trazado_119" data-name="Trazado 119" d="M679.744,164.373a4.112,4.112,0,0,0-1.9-.424h-2.841v6.738h2.841a4.1,4.1,0,0,0,1.9-.423,3.127,3.127,0,0,0,1.284-1.189,3.6,3.6,0,0,0,0-3.513A3.117,3.117,0,0,0,679.744,164.373Zm.442,4.268a2.316,2.316,0,0,1-.958.89,3.139,3.139,0,0,1-1.439.318h-1.82v-5.064h1.82a3.136,3.136,0,0,1,1.44.317,2.3,2.3,0,0,1,.956.89,2.775,2.775,0,0,1,0,2.648Z" transform="translate(-62.524 -16.937)" fill="#fff"/>
      <path id="Trazado_120" data-name="Trazado 120" d="M688.375,167.674h3.379v-.82h-3.379v-2.068h3.794v-.838h-4.756v6.738H692.3v-.837h-3.929Z" transform="translate(-66.401 -16.937)" fill="#fff"/>
      <path id="Trazado_121" data-name="Trazado 121" d="M700.883,164.786H702.4v5.9h.953v-6.738h-2.474Z" transform="translate(-70.612 -16.937)" fill="#fff"/>
      <path id="Trazado_122" data-name="Trazado 122" d="M709.561,163.837a2.75,2.75,0,0,0-1.212.263,2.1,2.1,0,0,0-.852.747,2,2,0,0,0-.313,1.115,1.966,1.966,0,0,0,.295,1.074,1.936,1.936,0,0,0,.817.719,2.758,2.758,0,0,0,1.19.248,2.837,2.837,0,0,0,1.145-.225,1.88,1.88,0,0,0,.522-.337l.289-.264-.016.392a2.6,2.6,0,0,1-.588,1.682,2.09,2.09,0,0,1-1.641.649,2.39,2.39,0,0,1-1.3-.317l-.364.75a2.466,2.466,0,0,0,.751.293,3.973,3.973,0,0,0,.924.1,3.317,3.317,0,0,0,1.668-.409,2.805,2.805,0,0,0,1.118-1.2,4.255,4.255,0,0,0,.4-1.92,3.772,3.772,0,0,0-.736-2.484A2.6,2.6,0,0,0,709.561,163.837Zm1.451,2.743a1.357,1.357,0,0,1-.553.472,1.831,1.831,0,0,1-.808.173,1.683,1.683,0,0,1-1.118-.351,1.3,1.3,0,0,1,0-1.9,1.581,1.581,0,0,1,1.072-.355,1.966,1.966,0,0,1,.872.179,1.354,1.354,0,0,1,.549.47,1.2,1.2,0,0,1,.186.652A1.189,1.189,0,0,1,711.012,166.58Z" transform="translate(-72.581 -16.902)" fill="#fff"/>
      <path id="Trazado_123" data-name="Trazado 123" d="M719.477,166.816l-.274-.047,1.754-2.166v-.654H716.51v.837h3.243l-1.693,2.08v.674h.538a2.1,2.1,0,0,1,1.252.307,1.019,1.019,0,0,1,.413.865,1.048,1.048,0,0,1-.417.879,1.918,1.918,0,0,1-1.171.318,3.307,3.307,0,0,1-1.145-.2,2.55,2.55,0,0,1-.885-.525l-.443.76a2.95,2.95,0,0,0,1.087.6,4.453,4.453,0,0,0,1.387.217,3.2,3.2,0,0,0,1.4-.275,2,2,0,0,0,.865-.74,1.975,1.975,0,0,0,.289-1.045,1.783,1.783,0,0,0-.521-1.315A2.261,2.261,0,0,0,719.477,166.816Z" transform="translate(-75.4 -16.937)" fill="#fff"/>
      <path id="Trazado_124" data-name="Trazado 124" d="M729.751,166.811a2.955,2.955,0,0,0-2.33-.023,1.95,1.95,0,0,0-.527.343l-.289.27.016-.394a2.588,2.588,0,0,1,.594-1.694,2.136,2.136,0,0,1,1.646-.649,2.331,2.331,0,0,1,1.29.317l.365-.752a2.572,2.572,0,0,0-.751-.291,4.109,4.109,0,0,0-.925-.1,3.312,3.312,0,0,0-1.669.408,2.8,2.8,0,0,0-1.118,1.2,4.257,4.257,0,0,0-.4,1.919,3.763,3.763,0,0,0,.737,2.483,2.585,2.585,0,0,0,2.093.876,2.758,2.758,0,0,0,1.217-.265,2.077,2.077,0,0,0,.857-.746,2.019,2.019,0,0,0,.313-1.117,1.917,1.917,0,0,0-1.121-1.79Zm-.227,2.782a1.576,1.576,0,0,1-1.079.356,1.937,1.937,0,0,1-.861-.177,1.34,1.34,0,0,1-.549-.472,1.221,1.221,0,0,1,.011-1.314,1.368,1.368,0,0,1,.546-.472,1.809,1.809,0,0,1,.806-.171,1.659,1.659,0,0,1,1.12.351,1.173,1.173,0,0,1,.419.948A1.2,1.2,0,0,1,729.525,169.593Z" transform="translate(-78.355 -16.902)" fill="#fff"/>
      <path id="Trazado_125" data-name="Trazado 125" d="M549.613,129.493a2.334,2.334,0,0,0,.736,1.067l.485.474-.566.375c-.017.012-.566.375-1.382.913l-.939.619c-1.806,1.19-4.212,2.772-5.49,3.6l6.34,1.27.1.021a3.612,3.612,0,0,1-.129-.507h0a4.623,4.623,0,0,1-.073-.818c0-.142,0-.287.016-.434h0a.548.548,0,0,1,1.094.069.5.5,0,0,1-.005.056c-.007.114-.011.232-.008.356h0c.019.179.035.359.048.538a2.214,2.214,0,0,0,.377.944l3.054-1.288,1.066-.449,2.625-1.105-3.476-3.723-1.169-1.253-.508-.318-2.247-1.411A1.9,1.9,0,0,0,549.613,129.493Zm3.349,4.515a.739.739,0,0,1,.777-.689.784.784,0,0,1,.21.043.739.739,0,0,1,.215,1.268.729.729,0,0,1-.5.164.741.741,0,0,1-.641-.449.733.733,0,0,1-.056-.327Z" transform="translate(-21.093 -5.852)" fill="#fff"/>
      <path id="Trazado_126" data-name="Trazado 126" d="M544.224,167.228l2.783-.989c0-.036.01-.074.014-.109l.413-4.5-1.357-.4c-1.159,3.533-2.164,6.538-3.03,9.082l.382,1.148.143.428-1.323.752c-1.339,3.883-2.273,6.459-2.866,8.074l3.792,0c1.008-3.607,1.6-5.637,2.588-8.738.069-.214.14-.435.212-.661l-.642.326ZM542.6,177.18a.544.544,0,1,1,.545-.545A.546.546,0,0,1,542.6,177.18Z" transform="translate(-20.132 -16.086)" fill="#fff"/>
      <path id="Trazado_127" data-name="Trazado 127" d="M507.135,160.279q-.258-.731-.547-1.561c-.025-.068-.048-.136-.071-.206-.168-.483-.339-.976-.511-1.477q-.456-1.321-.933-2.724-.311-.921-.634-1.875c-.013-.039-.027-.079-.039-.118h0q-.17-.5-.343-1.019-.508-1.52-1.039-3.122l-.072-.219-.289-.874q-.594-1.8-1.213-3.7-.568-1.744-1.156-3.564a23.289,23.289,0,0,1-1.071-5.348,21.306,21.306,0,0,1-.044-2.563q.026-.557.08-1.11c.043-.439.1-.878.174-1.312a19.832,19.832,0,0,1,6.47-11.655,19.132,19.132,0,0,1,3.483-2.436,17.538,17.538,0,0,1,3.845-1.542,15.6,15.6,0,0,1,3.983-.542h.043a15.615,15.615,0,0,1,3.984.542,17.579,17.579,0,0,1,3.845,1.542,19.175,19.175,0,0,1,3.483,2.436,19.864,19.864,0,0,1,5.163,7.147q.091.217.178.434l.621-.41a3.019,3.019,0,0,1-.549-1.011,2.95,2.95,0,0,1-.15-.945,3.187,3.187,0,0,1,.1-.771,2.965,2.965,0,0,1,.293-.744l.288-.48,1.917,1.2a22.847,22.847,0,0,0-1.919-3.183,21.892,21.892,0,0,0-17.274-9.307h0a22.383,22.383,0,0,0-21.473,21.886q-.011.6.008,1.2a25.7,25.7,0,0,0,1.353,7.323c1.194,3.562,2.151,6.415,2.936,8.77l.538,1.617c.5,1.514.927,2.8,1.3,3.936.159.487.307.948.447,1.386l.07.221c.95,2.978,1.534,5,2.517,8.517l3.776,0c-.241-.655-.558-1.523-.952-2.627Q507.466,161.218,507.135,160.279Zm24.7-42.354a.544.544,0,1,1-.545.544A.544.544,0,0,1,531.836,117.925Zm-14.608-6.874a.545.545,0,1,1-.544.545A.545.545,0,0,1,517.228,111.051Zm-14.607,6.971a.544.544,0,1,1-.545.544A.545.545,0,0,1,502.621,118.021ZM497.9,132.1a.543.543,0,0,1-.45.239.544.544,0,1,1,0-1.089.545.545,0,0,1,.544.544A.537.537,0,0,1,497.9,132.1Zm2.887,14.8a.545.545,0,1,1,.545-.545A.545.545,0,0,1,500.789,146.9Zm5.189,13.865a.544.544,0,1,1,.044-.215A.546.546,0,0,1,505.978,160.764Z" transform="translate(-6.494)" fill="#fff"/>
      <path id="Trazado_128" data-name="Trazado 128" d="M536.309,127.345l2.418-.377a5.166,5.166,0,0,0-.517-.857,2.307,2.307,0,0,0-2.237-1.079c-1.864.273-2.078,2.581-2.1,3.1a2.207,2.207,0,0,1,.454.148,2,2,0,0,1,1.005,1.019l1.7.962.781-2.043-1.367.213-.02,0h-.01l-.043,0a.549.549,0,0,1-.064-1.1Z" transform="translate(-18.409 -4.766)" fill="#fff"/>
      <path id="Trazado_129" data-name="Trazado 129" d="M522.89,134.5l.006-.011c.21-.377.446-.744.655-1.066l.063-.1.007-.01a15.18,15.18,0,0,1,1.063-1.411q.268-.313.548-.6c.228-.231.462-.448.707-.656l.11-.092.028-.022-8.8.091.305.307,3.992,4.015Z" transform="translate(-13.223 -6.494)" fill="#fff"/>
      <path id="Trazado_130" data-name="Trazado 130" d="M523.97,147.072a1.357,1.357,0,0,0,.208.43,1.374,1.374,0,0,0,.569.324c.472.169.887.313,1.215.426l-.863-8.09-.17-.024a7.608,7.608,0,0,1-1.712-.456,5.177,5.177,0,0,1-1.472-.882,2.221,2.221,0,0,1-.7-1.061l-5.558-5.59a9.145,9.145,0,0,0-1.015.829,3.264,3.264,0,0,0-1.206,2.161,1.537,1.537,0,0,0,.387.931,4.514,4.514,0,0,0,1.481,1.077,56.251,56.251,0,0,0,5.509,2.586c.28.108.6.23,1.082.435l.255.108.065.271a62.818,62.818,0,0,0,1.845,6.32C523.922,146.94,523.948,147.007,523.97,147.072Z" transform="translate(-11.97 -6.998)" fill="#fff"/>
      <path id="Trazado_131" data-name="Trazado 131" d="M495.513,167.594l4.854,2.99c-.573-1.747-1.27-3.841-2.163-6.512Z" transform="translate(-6.42 -16.976)" fill="#fff"/>
      <path id="Trazado_132" data-name="Trazado 132" d="M494.375,151.306a28.394,28.394,0,0,1-.866-3.177,26.051,26.051,0,0,1-.459-3.09q-.034-.389-.056-.779-.167.114-.327.237a5.494,5.494,0,0,0-2.361,4.413,7.76,7.76,0,0,0,3.1,6.106,11.633,11.633,0,0,0,2.763,1.659C495.643,155.089,495.047,153.312,494.375,151.306Z" transform="translate(-4.792 -10.783)" fill="#fff"/>
      <path id="Trazado_133" data-name="Trazado 133" d="M485.6,146.18l0-.007.005-.007a.731.731,0,0,1,.077-.091l-.085.033-.017.008c-.023.011-.052.025-.085.038l-.012.006a.843.843,0,0,1-.095.03c-.591.247-1.183.45-1.74.636l-.175.062h-.007l-.065.019-.029.009-.021.009-.026.008c-.078.026-.16.052-.249.078l-.01,0-.01,0c-.078.021-.156.045-.239.071-.12.037-.245.076-.385.11l-.067.014h0c-.09.027-.177.048-.261.067l-.019,0a.56.56,0,0,1-.086.026l-.02,0a.259.259,0,0,1-.03.01l-.02.007-.021,0-.074.019c-.054.015-.115.032-.185.045l-.054.013c-.558.128-1.011.214-1.471.28l-.115.014-.08.01-.043.006h-.025l-.043,0a14.429,14.429,0,0,1-1.475.08l-.116,0h0c-.279,0-.56,0-.832-.005l-.265,0h-.014c-.185-.008-.368-.019-.546-.03l-.26-.016-.04,0-.024,0-.05-.006c-.421-.034-.822-.07-1.215-.123l.049.056c.063.072.128.146.2.228l.041.038a1.554,1.554,0,0,1,.129.131l.02.023.01.014.008.009.037.034.01.011.01.01c.149.162.306.316.506.5l0,0,.024.015.032.029c.107.093.215.183.332.277l.048.039.017.016.017.017c.027.017.047.032.063.043l.024.017.023.02a1.418,1.418,0,0,0,.136.105l.07.052,0,0a5.708,5.708,0,0,0,2.014.995.534.534,0,0,1,.08.025l.083.015.024,0,.023.007a1.987,1.987,0,0,0,.386.062.571.571,0,0,1,.113.017,5.129,5.129,0,0,0,.666.01.885.885,0,0,1,.1-.008,3.512,3.512,0,0,0,.533-.1c.045-.012.072-.021.1-.029.058-.023.115-.045.169-.065a3.757,3.757,0,0,0,.376-.158c.085-.042.15-.076.221-.117s.116-.069.165-.1.108-.061.155-.093l.19-.134c.111-.077.214-.15.315-.23l.01-.008.01-.008c.052-.038.1-.078.155-.12l.094-.075a.764.764,0,0,1,.086-.076c.04-.03.083-.07.131-.115s.074-.067.115-.1l.03-.026h0l.01-.01.009-.008c.1-.092.2-.188.307-.289l.161-.155.039-.047c.063-.069.126-.126.18-.176.012-.012.025-.024.037-.034a.769.769,0,0,1,.084-.1l.008-.008.007-.008a.764.764,0,0,0,.058-.061c.032-.035.069-.078.115-.121l.075-.087.019-.017.019-.018h0a.553.553,0,0,1,.073-.087l.007-.005a3.885,3.885,0,0,0,.346-.387l.051-.061.023-.023c.014-.014.028-.025.04-.035l.01-.013c.021-.026.049-.06.086-.1l.02-.024.048-.058c.009-.01.017-.023.028-.037s.039-.053.065-.086l.021-.027.025-.024a.42.42,0,0,1,.039-.035c.109-.144.219-.272.336-.41a1.463,1.463,0,0,1,.1-.13Z" transform="translate(0 -11.35)" fill="#fff"/>
      <path id="Trazado_134" data-name="Trazado 134" d="M521.61,144.661c-.328-.135-.564-.226-.794-.315-.45-.173-.834-.32-1.686-.715h0c-.439.026-1.827.1-3.634.053l-.428-.012.038.048a6.963,6.963,0,0,1,.806,1.3,6.291,6.291,0,0,1,.542,1.784,21.711,21.711,0,0,1,.131,2.361l6.48.661c-.284-.841-.591-1.873-.918-3.084C521.9,145.834,521.706,145.053,521.61,144.661Z" transform="translate(-12.532 -10.586)" fill="#fff"/>
      <path id="Trazado_135" data-name="Trazado 135" d="M554.062,144.847a3.627,3.627,0,0,1-1.151-.409c-.085.054-.194.127-.323.219-.01.216-.023.433-.04.649a23.325,23.325,0,0,1-1.071,5.348l-.357,1.1,2.717,1.674.809-2.416a26.052,26.052,0,0,0,1.284-6.128q-.376.04-.72.047A5.668,5.668,0,0,1,554.062,144.847Z" transform="translate(-23.801 -10.839)" fill="#fff"/>
      <path id="Trazado_136" data-name="Trazado 136" d="M532.26,138.636a12.289,12.289,0,0,0,2.075-.771l-3.859-.773h0l-.736-.144-1.554-.3.929-.739c.207-.164.428-.327.642-.483a8.231,8.231,0,0,0,1.357-1.146h0a3.162,3.162,0,0,0,.883-2.159,1.4,1.4,0,0,0-.089-.425.951.951,0,0,0-.253-.369,1.351,1.351,0,0,0-1.219-.178,3.114,3.114,0,0,0-1.076.544,4.94,4.94,0,0,0-.575.534h0a12.655,12.655,0,0,0-1.505,1.873c-.02.03-.041.061-.06.093a8.661,8.661,0,0,0-1.063,2,1.243,1.243,0,0,0,.311,1.45C527.849,138.845,530.373,139.009,532.26,138.636Z" transform="translate(-15.966 -6.662)" fill="#fff"/>
      <path id="Trazado_137" data-name="Trazado 137" d="M563.924,142.226a.813.813,0,0,1,.108-.364l-2.222-2.38-3.37,1.42-1.087.459-1.945.819a4.079,4.079,0,0,0,1,.11,7.076,7.076,0,0,0,.933-.066c.135-.017.273-.038.416-.063a5.241,5.241,0,0,1,.683-.076,3.633,3.633,0,0,1,.995.084,2.54,2.54,0,0,1,1.165.61,2.654,2.654,0,0,1,.616.89,3.6,3.6,0,0,1,.248.884c.017.1.028.2.036.3l1.34-.17c-.036-.068-.072-.137-.107-.206l-.148-.283,0,0a.53.53,0,0,1-.061-.242.545.545,0,0,1,1.028-.262h0l.147.283.068.13.541-1.121a.9.9,0,0,1-.173-.148A.824.824,0,0,1,563.924,142.226Z" transform="translate(-25.141 -9.29)" fill="#fff"/>
      <path id="Trazado_138" data-name="Trazado 138" d="M551.088,157.445l-2.706-1.668-.961-.591-2.136-1.316a9.81,9.81,0,0,1-.854,1.538,11.25,11.25,0,0,1-.96,1.222l3.172.942,1.052.311,2.19.652-.317,3.452-.179,1.952v0s-.011.1-.027.2a1.124,1.124,0,0,1-.126.423.858.858,0,0,1-.4.34,1.161,1.161,0,0,1-.166.06l-.1.037-1.757.624.531,2.108.392-.2,1.385-.7,1.2-.608c.008-.03.017-.061.023-.083l1.919-7.981-.206-.128Z" transform="translate(-21.41 -13.787)" fill="#fff"/>
      <path id="Trazado_139" data-name="Trazado 139" d="M511.672,176.544c.646,1.883,1.255,3.634,1.824,5.234.159-.958.373-2.291.452-2.893,0-.03.008-.06.013-.091.01-.072.022-.145.025-.212,0-.034,0-.058,0-.073Z" transform="translate(-11.47 -20.874)" fill="#fff"/>
      <path id="Trazado_140" data-name="Trazado 140" d="M530.65,165.2l-.357-1.071-2.952-8.844-.353-1.057-1.347-4.039h0a.482.482,0,0,1-.013-.063.548.548,0,0,1,1.074-.214h0l1.241,3.718a9.994,9.994,0,0,0,3.468-4.09,17.6,17.6,0,0,1,1.862-3.26,16.2,16.2,0,0,1,1.915-2.2c.39-.373.751-.677,1.061-.92l.179-.137-.175-.035-7.615-1.526a15.418,15.418,0,0,1-1.622.8,12.317,12.317,0,0,1-1.975.7,10.616,10.616,0,0,1-1.747.2q-.16,0-.318,0h-.2l.933,8.739.088.839-.8-.258c-.009,0-.848-.273-2.053-.707a2.357,2.357,0,0,1-1.028-.638,2.29,2.29,0,0,1-.409-.773c-.007-.02-.015-.042-.022-.063l-7.99-.815v-.5a26.176,26.176,0,0,0-.123-2.7,5.4,5.4,0,0,0-1.105-2.54,5.686,5.686,0,0,0-.783-.832c-.542-.038-1.07-.086-1.578-.144a24.153,24.153,0,0,1-3.76-.7,7.786,7.786,0,0,0-1.842-.279,21.485,21.485,0,0,0,1.068,7.6q.6,1.855,1.18,3.641h.009l0,.038q.533,1.636,1.051,3.208c.114-.113.235-.241.358-.385a6.819,6.819,0,0,0,1.5-3.414,4.592,4.592,0,0,0-.166-2.319h0a.591.591,0,0,1-.018-.094.548.548,0,0,1,1.058-.247h0a5.42,5.42,0,0,1,.248,1.065,5.828,5.828,0,0,1,.03,1.134,22.5,22.5,0,0,0,5.03,2.315c1.635.553,2.9.844,2.914.846l.014,0a16.577,16.577,0,0,0,5.271.528l-.463-.685h0a.634.634,0,0,1-.036-.067.549.549,0,0,1,.977-.5h0l.749,1.108.673.994,5.3,7.843-5.048,3.289a2.036,2.036,0,0,1-.277.148,1.334,1.334,0,0,1-.675.124,1.1,1.1,0,0,1-.672-.367,2.168,2.168,0,0,1-.214-.257l-.4-.567-1.464,1.471,1.7,1.494a.547.547,0,0,0,.276.116.7.7,0,0,0,.284-.072,1.744,1.744,0,0,0,.195-.1l.013-.008,6.967-3.966Z" transform="translate(-8.536 -9.907)" fill="#fff"/>
      <path id="Trazado_141" data-name="Trazado 141" d="M518.454,168.238c-.036-.178-.137-.376-.61-.491-2.005-.49-8.042-2-8.1-2.016l-.38-.1-.281-3.311a7.192,7.192,0,0,1-.624.84,6.6,6.6,0,0,1-.779.767q.667,2.017,1.3,3.909c2.152.2,5.139.5,6.573.678a2.807,2.807,0,0,1,.512.1,1.132,1.132,0,0,1,.574.386,1.3,1.3,0,0,1,.207.965l-.095.6,2.084.131-.163-1.111C518.6,169.131,518.484,168.388,518.454,168.238Z" transform="translate(-10.222 -16.43)" fill="#fff"/>
    </g>
  </g>
</svg>
